<svg xmlns="http://www.w3.org/2000/svg" xmlns:xlink="http://www.w3.org/1999/xlink" viewBox="0 0 485.04 286.22"><defs><style>.cls-1{fill:url(#radial-gradient);}.cls-2{fill:url(#radial-gradient-2);}.cls-3{fill:url(#linear-gradient);}.cls-4{fill:url(#radial-gradient-3);}.cls-5{fill:url(#linear-gradient-2);}.cls-6{fill:url(#radial-gradient-4);}.cls-7{fill:url(#radial-gradient-5);}.cls-8{fill:url(#linear-gradient-3);}.cls-9{fill:url(#radial-gradient-6);}.cls-10{fill:url(#radial-gradient-7);}.cls-11{fill:url(#radial-gradient-8);}.cls-12{fill:url(#linear-gradient-4);}</style><radialGradient id="radial-gradient" cx="202.73" cy="99.01" r="116.39" gradientUnits="userSpaceOnUse"><stop offset="0" stop-color="#fff"/><stop offset="0" stop-color="#f4fafb"/><stop offset="0" stop-color="#d5eaf1"/><stop offset="0" stop-color="#b9dce8"/><stop offset="0" stop-color="#a3d2e0"/><stop offset="0" stop-color="#92c9db"/><stop offset="0" stop-color="#87c3d7"/><stop offset="0" stop-color="#80c0d5"/><stop offset="0" stop-color="#7ebfd4"/><stop offset="0.31" stop-color="#7bbdd2"/><stop offset="0.53" stop-color="#72b7cc"/><stop offset="0.72" stop-color="#62acc2"/><stop offset="0.9" stop-color="#4c9cb3"/><stop offset="1" stop-color="#3c91a8"/></radialGradient><radialGradient id="radial-gradient-2" cx="106.27" cy="100.64" r="109.31" gradientTransform="translate(0 -41.21) scale(1 1.41)" gradientUnits="userSpaceOnUse"><stop offset="0" stop-color="#fff"/><stop offset="0" stop-color="#f4fafb"/><stop offset="0" stop-color="#d5eaf1"/><stop offset="0" stop-color="#b9dce8"/><stop offset="0" stop-color="#a3d2e0"/><stop offset="0" stop-color="#92c9db"/><stop offset="0" stop-color="#87c3d7"/><stop offset="0" stop-color="#80c0d5"/><stop offset="0" stop-color="#7ebfd4"/><stop offset="0.25" stop-color="#7cbcd2"/><stop offset="0.42" stop-color="#76b3cb"/><stop offset="0.57" stop-color="#6ba3c0"/><stop offset="0.71" stop-color="#5c8daf"/><stop offset="0.85" stop-color="#49719a"/><stop offset="0.97" stop-color="#324e81"/><stop offset="1" stop-color="#2b4479"/></radialGradient><linearGradient id="linear-gradient" x1="220.64" y1="99.01" x2="356.54" y2="99.01" gradientUnits="userSpaceOnUse"><stop offset="0" stop-color="#fff"/><stop offset="0" stop-color="#f4fafb"/><stop offset="0" stop-color="#d5eaf1"/><stop offset="0" stop-color="#b9dce8"/><stop offset="0" stop-color="#a3d2e0"/><stop offset="0" stop-color="#92c9db"/><stop offset="0" stop-color="#87c3d7"/><stop offset="0" stop-color="#80c0d5"/><stop offset="0" stop-color="#7ebfd4"/><stop offset="0.2" stop-color="#69a0bd"/><stop offset="0.57" stop-color="#486f98"/><stop offset="0.85" stop-color="#335082"/><stop offset="1" stop-color="#2b4479"/></linearGradient><radialGradient id="radial-gradient-3" cx="281.75" cy="187.13" r="116.32" xlink:href="#radial-gradient"/><linearGradient id="linear-gradient-2" x1="128.3" y1="187.13" x2="264.38" y2="187.13" gradientUnits="userSpaceOnUse"><stop offset="0" stop-color="#fff"/><stop offset="0" stop-color="#f4fafb"/><stop offset="0" stop-color="#d5eaf1"/><stop offset="0" stop-color="#b9dce8"/><stop offset="0" stop-color="#a3d2e0"/><stop offset="0" stop-color="#92c9db"/><stop offset="0" stop-color="#87c3d7"/><stop offset="0" stop-color="#80c0d5"/><stop offset="0" stop-color="#7ebfd4"/><stop offset="0.02" stop-color="#7cbcd2"/><stop offset="0.34" stop-color="#5989ac"/><stop offset="0.63" stop-color="#406390"/><stop offset="0.86" stop-color="#314c7f"/><stop offset="1" stop-color="#2b4479"/></linearGradient><radialGradient id="radial-gradient-4" cx="66.47" cy="173.18" r="87.08" xlink:href="#radial-gradient"/><radialGradient id="radial-gradient-5" cx="118.13" cy="218.27" r="66.53" gradientUnits="userSpaceOnUse"><stop offset="0" stop-color="#fff"/><stop offset="0" stop-color="#f4fafb"/><stop offset="0" stop-color="#d5eaf1"/><stop offset="0" stop-color="#b9dce8"/><stop offset="0" stop-color="#a3d2e0"/><stop offset="0" stop-color="#92c9db"/><stop offset="0" stop-color="#87c3d7"/><stop offset="0" stop-color="#80c0d5"/><stop offset="0" stop-color="#7ebfd4"/><stop offset="0.14" stop-color="#79b7ce"/><stop offset="0.36" stop-color="#6ba3bf"/><stop offset="0.62" stop-color="#5481a6"/><stop offset="0.92" stop-color="#345283"/><stop offset="1" stop-color="#2b4479"/></radialGradient><linearGradient id="linear-gradient-3" x1="121.28" y1="243.47" x2="183.2" y2="243.47" gradientUnits="userSpaceOnUse"><stop offset="0" stop-color="#fff"/><stop offset="0" stop-color="#f1f2f6"/><stop offset="0" stop-color="#c8cedc"/><stop offset="0" stop-color="#a2adc4"/><stop offset="0" stop-color="#8290b0"/><stop offset="0" stop-color="#66789f"/><stop offset="0" stop-color="#506591"/><stop offset="0" stop-color="#3f5686"/><stop offset="0" stop-color="#344c7e"/><stop offset="0" stop-color="#2d467a"/><stop offset="0" stop-color="#2b4479"/><stop offset="0.68" stop-color="#669cba"/><stop offset="0.99" stop-color="#7ebfd4"/></linearGradient><radialGradient id="radial-gradient-6" cx="378.67" cy="185.87" r="90.08" xlink:href="#radial-gradient-5"/><radialGradient id="radial-gradient-7" cx="418.46" cy="112.96" r="87" xlink:href="#radial-gradient"/><radialGradient id="radial-gradient-8" cx="366.89" cy="67.51" r="66.39" xlink:href="#radial-gradient-5"/><linearGradient id="linear-gradient-4" x1="301.64" y1="42.86" x2="364.1" y2="42.86" gradientUnits="userSpaceOnUse"><stop offset="0" stop-color="#fff"/><stop offset="0" stop-color="#f4fafb"/><stop offset="0" stop-color="#d5eaf1"/><stop offset="0" stop-color="#b9dce8"/><stop offset="0" stop-color="#a3d2e0"/><stop offset="0" stop-color="#92c9db"/><stop offset="0" stop-color="#87c3d7"/><stop offset="0" stop-color="#80c0d5"/><stop offset="0" stop-color="#7ebfd4"/><stop offset="0.23" stop-color="#7cbcd2"/><stop offset="0.41" stop-color="#76b2cb"/><stop offset="0.57" stop-color="#6ba2bf"/><stop offset="0.71" stop-color="#5b8bae"/><stop offset="0.85" stop-color="#476e98"/><stop offset="0.98" stop-color="#2f4a7e"/><stop offset="1" stop-color="#2b4479"/></linearGradient></defs><g id="Layer_2" data-name="Layer 2"><g id="Layer_3" data-name="Layer 3"><polygon class="cls-1" points="334.22 198.02 304.34 198.02 200.66 25.58 71.24 24.68 86.18 0 214.88 0 334.22 198.02"/><polygon class="cls-2" points="212.54 55.28 83.3 55.28 14.72 170.66 0 146 68.54 30.62 197.78 30.62 212.54 55.28"/><polygon class="cls-3" points="220.64 0 250.7 0 356.54 176.24 343.58 198.02 339.98 198.02 220.64 0"/><polygon class="cls-4" points="413.06 260.84 398.84 286.22 269.96 286.22 150.44 88.04 181.04 88.04 284.54 261.2 413.06 260.84"/><polygon class="cls-5" points="141.8 88.04 144.5 88.04 264.38 286.22 234.14 286.22 128.3 109.82 141.8 88.04"/><polygon class="cls-6" points="47.48 175.34 112.46 286.22 82.22 286.22 17.6 175.34 85.82 60.14 115.34 60.14 47.48 175.34"/><polygon class="cls-7" points="53.06 175.34 68 150.32 133.16 261.2 183.2 261.2 168.62 286.22 118.13 286.22 53.06 175.34"/><polygon class="cls-8" points="121.28 230.78 168.62 230.78 183.2 256.16 135.86 256.16 121.28 230.78"/><polygon class="cls-9" points="485.04 140.42 417.2 255.98 287.06 255.98 272.3 230.96 401.9 230.96 470.48 115.76 485.04 140.42"/><polygon class="cls-10" points="467.24 110.9 399.2 225.92 369.68 225.92 437.72 110.9 372.56 0 401.9 0 467.24 110.9"/><polygon class="cls-11" points="301.64 25.58 352.04 25.58 416.84 135.02 432.14 110.9 366.89 0 316.4 0 301.64 25.58"/><polygon class="cls-12" points="301.64 30.26 349.88 30.26 364.1 55.45 315.86 55.45 301.64 30.26"/></g></g></svg>